<?xml version="1.0" encoding="UTF-8" standalone="no"?>
<!DOCTYPE svg PUBLIC "-//W3C//DTD SVG 1.1//EN" "http://www.w3.org/Graphics/SVG/1.1/DTD/svg11.dtd">
<svg xmlns="http://www.w3.org/2000/svg" version="1.1" viewBox="0.00 0.00 494.00 494.00">
<path fill="#25b3c3" d="
  M 141.35 0.00
  L 146.76 0.00
  Q 175.68 3.03 187.25 29.52
  Q 188.74 32.91 189.85 39.31
  Q 189.93 39.80 190.43 39.90
  Q 209.51 43.78 220.45 58.81
  Q 235.42 79.36 226.24 103.76
  Q 219.94 120.49 201.08 128.58
  Q 200.66 128.76 200.66 129.21
  L 200.66 150.54
  Q 200.66 151.29 201.40 151.33
  C 212.06 151.93 220.78 160.38 223.69 169.97
  C 225.49 175.91 224.64 183.03 224.79 189.46
  Q 224.80 189.96 225.31 189.97
  Q 228.50 190.04 231.75 189.94
  C 238.83 189.73 244.98 193.36 247.88 199.84
  Q 249.51 203.46 249.35 209.31
  Q 249.16 216.11 249.34 223.86
  Q 249.47 229.53 247.94 233.03
  C 245.10 239.55 239.04 243.15 231.97 243.12
  Q 228.49 243.11 225.05 243.16
  A 0.23 0.22 -0.0 0 0 224.82 243.38
  Q 224.65 262.30 224.84 281.52
  Q 224.93 290.34 223.48 294.47
  C 219.61 305.48 209.74 312.62 198.27 312.58
  Q 146.92 312.42 92.29 312.60
  C 81.98 312.64 73.69 309.53 67.89 301.08
  C 64.00 295.41 63.14 289.69 63.20 282.47
  Q 63.38 263.00 63.25 243.63
  Q 63.24 243.13 62.74 243.12
  C 60.11 243.04 57.35 243.31 54.78 243.09
  C 44.03 242.16 38.38 234.37 38.70 224.05
  Q 38.91 216.99 38.69 209.88
  Q 38.51 204.06 39.98 200.37
  C 42.60 193.81 48.94 189.73 56.05 189.94
  Q 59.22 190.03 62.70 189.98
  Q 63.30 189.97 63.29 189.38
  C 63.26 182.42 62.39 173.87 65.26 167.38
  Q 71.43 153.42 86.91 151.15
  Q 87.46 151.07 87.46 150.51
  L 87.46 129.44
  Q 87.46 128.78 86.86 128.52
  Q 60.94 117.28 58.53 89.28
  C 57.70 79.58 60.50 69.17 66.00 61.03
  Q 77.54 43.92 97.57 39.94
  Q 98.23 39.81 98.34 39.14
  C 98.84 35.91 99.70 32.27 100.96 29.34
  Q 112.25 3.20 141.35 0.00
  Z
  M 112.13 40.96
  C 111.58 43.68 112.15 46.64 111.02 49.18
  C 109.49 52.62 106.44 53.37 103.01 53.44
  C 86.23 53.80 72.71 70.07 72.40 85.73
  C 72.16 98.51 78.89 109.56 90.66 114.89
  C 95.06 116.89 101.27 117.10 101.35 123.62
  Q 101.44 131.93 101.36 150.43
  Q 101.36 151.08 102.01 151.08
  L 186.20 151.08
  Q 186.69 151.08 186.70 150.58
  Q 186.79 137.99 186.69 124.48
  C 186.66 121.47 187.78 118.62 190.64 117.43
  C 193.48 116.25 196.44 115.57 199.24 114.05
  Q 214.49 105.71 215.64 87.87
  Q 216.22 78.92 211.71 71.05
  Q 202.01 54.12 183.35 53.27
  C 179.63 53.10 176.76 50.73 176.54 46.84
  Q 175.35 25.76 158.02 17.22
  C 150.37 13.46 140.81 12.90 133.00 15.96
  Q 115.86 22.69 112.13 40.96
  Z
  M 210.80 177.42
  A 12.40 12.40 0.0 0 0 198.40 165.02
  L 89.66 165.02
  A 12.40 12.40 0.0 0 0 77.26 177.42
  L 77.26 286.22
  A 12.40 12.40 0.0 0 0 89.66 298.62
  L 198.40 298.62
  A 12.40 12.40 0.0 0 0 210.80 286.22
  L 210.80 177.42
  Z
  M 55.32 229.16
  L 62.79 229.20
  Q 63.28 229.21 63.28 228.71
  L 63.27 204.47
  Q 63.27 203.92 62.72 203.92
  L 55.29 203.92
  A 2.54 2.54 0.0 0 0 52.75 206.46
  L 52.75 226.57
  A 2.59 2.58 -89.9 0 0 55.32 229.16
  Z
  M 225.35 229.18
  L 232.71 229.17
  A 2.64 2.64 0.0 0 0 235.35 226.53
  L 235.35 206.51
  A 2.60 2.59 89.9 0 0 232.76 203.92
  L 225.30 203.92
  Q 224.77 203.92 224.77 204.45
  L 224.77 228.60
  Q 224.77 229.18 225.35 229.18
  Z"
/>
<path fill="#25b3c3" d="
  M 494.00 260.63
  L 494.00 264.48
  Q 491.79 275.80 482.42 279.42
  Q 478.73 280.84 473.67 280.82
  Q 446.43 280.69 422.09 280.81
  Q 421.57 280.81 421.56 281.33
  Q 421.03 298.89 407.42 309.51
  A 0.99 0.96 71.4 0 0 407.05 310.28
  L 407.05 388.53
  A 1.31 1.30 -71.2 0 0 407.55 389.56
  Q 409.19 390.85 410.59 392.54
  Q 423.59 408.20 416.39 427.04
  C 413.49 434.62 406.37 441.66 398.75 444.68
  Q 381.85 451.39 366.39 440.73
  Q 365.87 440.38 365.25 440.38
  L 288.50 440.38
  A 0.46 0.45 0.0 0 0 288.04 440.83
  Q 288.03 463.25 288.04 485.75
  Q 288.04 492.37 282.12 494.00
  L 5.76 494.00
  Q 1.19 492.64 0.00 488.12
  L 0.00 410.01
  Q 2.36 379.02 23.49 358.00
  Q 41.54 340.04 66.93 335.87
  Q 73.84 334.73 84.76 334.75
  Q 149.60 334.86 206.37 334.79
  Q 226.88 334.76 243.67 343.12
  C 261.85 352.17 276.51 368.10 283.34 387.63
  A 1.23 1.22 -9.3 0 0 284.50 388.46
  L 364.58 388.46
  Q 365.12 388.46 365.12 387.92
  L 365.12 310.49
  Q 365.12 309.77 364.55 309.34
  C 355.65 302.67 350.78 292.07 350.68 281.15
  A 0.35 0.35 0.0 0 0 350.33 280.81
  Q 324.23 280.66 299.26 280.85
  Q 293.19 280.89 289.94 279.53
  C 271.90 272.00 275.58 246.37 295.23 244.21
  Q 295.83 244.15 295.90 243.55
  C 299.64 207.30 323.01 178.00 357.26 165.92
  C 359.73 165.05 362.30 164.55 364.80 163.75
  Q 365.35 163.57 365.27 163.00
  C 363.81 152.57 369.95 142.63 380.02 139.68
  C 394.88 135.32 409.21 147.57 406.92 162.97
  Q 406.83 163.57 407.42 163.72
  C 445.37 173.51 472.33 204.63 476.32 243.61
  Q 476.38 244.10 476.87 244.17
  Q 491.29 246.12 494.00 260.63
  Z
  M 379.28 161.31
  L 392.90 161.33
  A 0.30 0.30 0.0 0 0 393.20 161.03
  L 393.20 159.91
  A 7.16 7.00 -89.9 0 0 386.22 152.74
  L 386.00 152.74
  A 7.16 7.00 -89.9 0 0 378.99 159.89
  L 378.98 161.01
  A 0.30 0.30 0.0 0 0 379.28 161.31
  Z
  M 427.74 187.53
  C 379.41 156.21 316.61 187.17 309.92 243.57
  Q 309.84 244.19 310.47 244.19
  L 461.95 244.19
  A 0.36 0.35 87.1 0 0 462.30 243.79
  C 459.67 220.75 447.26 200.18 427.74 187.53
  Z
  M 479.99 262.42
  A 4.30 4.30 0.0 0 0 475.69 258.12
  L 296.53 258.12
  A 4.30 4.30 0.0 0 0 292.23 262.42
  L 292.23 262.50
  A 4.30 4.30 0.0 0 0 296.53 266.80
  L 475.69 266.80
  A 4.30 4.30 0.0 0 0 479.99 262.50
  L 479.99 262.42
  Z
  M 407.38 280.73
  L 364.88 280.81
  A 0.22 0.22 0.0 0 0 364.66 281.03
  L 364.66 281.33
  A 21.40 21.39 89.9 0 0 386.09 302.69
  L 386.25 302.69
  A 21.40 21.39 89.9 0 0 407.60 281.25
  L 407.60 280.95
  A 0.22 0.22 0.0 0 0 407.38 280.73
  Z
  M 393.12 316.30
  A 0.28 0.28 0.0 0 0 392.79 316.02
  Q 386.36 317.31 379.53 316.06
  A 0.41 0.41 0.0 0 0 379.05 316.46
  L 379.05 381.70
  Q 379.05 382.40 379.74 382.25
  Q 385.90 380.90 392.49 382.24
  Q 393.12 382.37 393.12 381.72
  L 393.12 316.30
  Z
  M 14.37 407.39
  Q 14.07 409.94 14.07 412.07
  Q 13.94 446.12 14.02 479.48
  Q 14.02 480.00 14.54 480.00
  L 273.49 480.00
  Q 274.12 480.00 274.12 479.36
  Q 274.09 447.26 274.13 416.23
  Q 274.16 389.83 257.90 371.35
  Q 242.73 354.10 220.49 349.95
  Q 213.37 348.62 201.04 348.68
  Q 142.82 348.92 89.37 348.66
  Q 76.32 348.60 69.36 349.66
  C 40.08 354.13 17.82 377.86 14.37 407.39
  Z
  M 404.98 414.40
  A 18.88 18.88 0.0 0 0 386.10 395.52
  A 18.88 18.88 0.0 0 0 367.22 414.40
  A 18.88 18.88 0.0 0 0 386.10 433.28
  A 18.88 18.88 0.0 0 0 404.98 414.40
  Z
  M 287.41 402.38
  A 0.16 0.16 0.0 0 0 287.25 402.55
  Q 288.45 414.16 287.94 425.86
  A 0.55 0.55 0.0 0 0 288.49 426.43
  L 355.05 426.43
  A 0.33 0.33 0.0 0 0 355.36 425.99
  Q 351.15 414.18 355.38 402.85
  Q 355.55 402.38 355.04 402.38
  L 287.41 402.38
  Z"
/>
<path fill="#25b3c3" d="
  M 130.07 215.69
  A 21.94 21.94 0.0 0 1 108.13 237.63
  A 21.94 21.94 0.0 0 1 86.19 215.69
  A 21.94 21.94 0.0 0 1 108.13 193.75
  A 21.94 21.94 0.0 0 1 130.07 215.69
  Z
  M 116.10 215.69
  A 7.97 7.97 0.0 0 0 108.13 207.72
  A 7.97 7.97 0.0 0 0 100.16 215.69
  A 7.97 7.97 0.0 0 0 108.13 223.66
  A 7.97 7.97 0.0 0 0 116.10 215.69
  Z"
/>
<path fill="#25b3c3" d="
  M 201.88 215.68
  A 21.94 21.94 0.0 0 1 179.94 237.62
  A 21.94 21.94 0.0 0 1 158.00 215.68
  A 21.94 21.94 0.0 0 1 179.94 193.74
  A 21.94 21.94 0.0 0 1 201.88 215.68
  Z
  M 187.92 215.69
  A 7.97 7.97 0.0 0 0 179.95 207.72
  A 7.97 7.97 0.0 0 0 171.98 215.69
  A 7.97 7.97 0.0 0 0 179.95 223.66
  A 7.97 7.97 0.0 0 0 187.92 215.69
  Z"
/>
<path fill="#25b3c3" d="
  M 113.62 267.85
  C 108.43 262.99 113.43 254.02 120.53 256.26
  Q 145.09 263.99 170.17 256.19
  C 173.86 255.04 177.67 257.62 178.60 261.18
  C 179.49 264.63 177.57 268.34 174.23 269.45
  Q 148.90 277.83 119.95 270.78
  Q 115.64 269.73 113.62 267.85
  Z"
/>
<path fill="#25b3c3" d="
  M 144.53 370.03
  Q 151.57 365.56 158.94 360.55
  Q 162.78 357.94 165.96 357.25
  C 171.87 355.97 178.10 359.29 180.58 364.81
  Q 181.92 367.78 181.85 371.93
  Q 181.65 384.68 181.86 397.44
  C 181.96 403.44 179.49 408.48 173.91 411.04
  C 168.75 413.40 163.92 412.06 159.34 408.94
  Q 151.92 403.91 144.30 399.07
  A 0.44 0.43 -44.0 0 0 143.83 399.07
  Q 137.09 403.24 130.24 407.98
  Q 125.28 411.41 121.71 412.05
  C 115.58 413.17 108.94 409.31 107.04 403.22
  Q 106.13 400.30 106.18 395.90
  Q 106.31 384.54 106.23 371.76
  Q 106.17 360.74 115.81 357.60
  Q 121.56 355.73 127.04 359.27
  Q 135.37 364.66 143.47 370.02
  Q 144.00 370.37 144.53 370.03
  Z
  M 120.74 371.81
  A 0.32 0.32 0.0 0 0 120.25 372.08
  L 120.25 397.16
  A 0.32 0.32 0.0 0 0 120.74 397.43
  L 139.92 384.89
  A 0.32 0.32 0.0 0 0 139.92 384.35
  L 120.74 371.81
  Z
  M 167.34 397.41
  A 0.33 0.33 0.0 0 0 167.85 397.14
  L 167.85 372.10
  A 0.33 0.33 0.0 0 0 167.34 371.83
  L 148.20 384.34
  A 0.33 0.33 0.0 0 0 148.20 384.90
  L 167.34 397.41
  Z"
/>
</svg>
