<?xml version="1.0" encoding="UTF-8"?>
<!DOCTYPE svg PUBLIC "-//W3C//DTD SVG 1.1//EN" "http://www.w3.org/Graphics/SVG/1.1/DTD/svg11.dtd">
<svg xmlns="http://www.w3.org/2000/svg" version="1.1" width="5170px" height="2277px" style="shape-rendering:geometricPrecision; text-rendering:geometricPrecision; image-rendering:optimizeQuality; fill-rule:evenodd; clip-rule:evenodd" xmlns:xlink="http://www.w3.org/1999/xlink">
<g><path fill="#000000" d="M 981.5,-0.5 C 984.5,-0.5 987.5,-0.5 990.5,-0.5C 1014.66,14.1367 1039,28.6367 1063.5,43C 1366.91,217.788 1670.08,392.954 1973,568.5C 1973.67,947.833 1973.67,1327.17 1973,1706.5C 1943.41,1724.71 1913.58,1742.54 1883.5,1760C 1585.27,1931.94 1287.27,2104.11 989.5,2276.5C 987.167,2276.5 984.833,2276.5 982.5,2276.5C 655.032,2086.6 327.366,1896.93 -0.5,1707.5C -0.5,1327.83 -0.5,948.167 -0.5,568.5C 25.307,552.76 51.307,537.26 77.5,522C 352.833,363.333 628.167,204.667 903.5,46C 929.729,30.7257 955.729,15.2257 981.5,-0.5 Z"/></g>
<g><path fill="#2ca8b6" d="M 983.5,87.5 C 985.199,87.3398 986.866,87.5065 988.5,88C 1290.66,262.247 1592.66,436.747 1894.5,611.5C 1895.67,962.166 1895.83,1312.83 1895,1663.5C 1592.48,1839.36 1289.48,2014.36 986,2188.5C 966.319,2178.07 946.819,2167.24 927.5,2156C 643.918,1991.96 360.418,1827.79 77,1663.5C 76.3333,1312.83 76.3333,962.167 77,611.5C 379.311,436.933 681.478,262.266 983.5,87.5 Z"/></g>
<g><path fill="#000000" d="M 983.5,197.5 C 988.192,197.841 992.526,199.341 996.5,202C 1057.91,237.121 1119.08,272.621 1180,308.5C 1180.8,310.259 1180.63,311.926 1179.5,313.5C 984.591,425.535 790.091,538.202 596,651.5C 595.333,652.167 595.333,652.833 596,653.5C 626.752,671.46 657.585,689.293 688.5,707C 690.5,707.667 692.5,707.667 694.5,707C 877.526,601.825 1060.19,496.158 1242.5,390C 1255.76,382.54 1269.09,375.373 1282.5,368.5C 1446.32,461.326 1609.48,555.326 1772,650.5C 1772.78,651.944 1772.61,653.277 1771.5,654.5C 1513.66,803.919 1255.66,953.086 997.5,1102C 994.702,1103.73 991.702,1104.9 988.5,1105.5C 981.273,1102.55 974.273,1099.05 967.5,1095C 909.918,1061.96 852.418,1028.79 795,995.5C 794.333,994.167 794.333,992.833 795,991.5C 989.085,878.874 1183.25,766.374 1377.5,654C 1378.73,652.413 1378.39,651.079 1376.5,650C 1346.17,632.333 1315.83,614.667 1285.5,597C 1283.83,596.333 1282.17,596.333 1280.5,597C 1087,709.253 893.33,821.253 699.5,933C 696.119,935.245 692.452,935.912 688.5,935C 525.833,841.667 363.167,748.333 200.5,655C 199.446,653.612 199.28,652.112 200,650.5C 461.18,499.333 722.347,348.333 983.5,197.5 Z"/></g>
<g><path fill="#e3124a" d="M 2401.5,425.5 C 2485.17,425.5 2568.83,425.5 2652.5,425.5C 2652.5,449.5 2652.5,473.5 2652.5,497.5C 2599.17,497.5 2545.83,497.5 2492.5,497.5C 2492.5,520.5 2492.5,543.5 2492.5,566.5C 2539.5,566.5 2586.5,566.5 2633.5,566.5C 2633.5,590.167 2633.5,613.833 2633.5,637.5C 2586.5,637.5 2539.5,637.5 2492.5,637.5C 2492.5,674.167 2492.5,710.833 2492.5,747.5C 2462.17,747.5 2431.83,747.5 2401.5,747.5C 2401.5,640.167 2401.5,532.833 2401.5,425.5 Z"/></g>
<g><path fill="#e3124a" d="M 2692.5,425.5 C 2723.17,425.5 2753.83,425.5 2784.5,425.5C 2784.33,489.501 2784.5,553.501 2785,617.5C 2790.32,664.14 2816.15,683.307 2862.5,675C 2884.56,667.764 2897.39,652.597 2901,629.5C 2901.93,624.201 2902.6,618.867 2903,613.5C 2903.5,550.834 2903.67,488.168 2903.5,425.5C 2933.83,425.5 2964.17,425.5 2994.5,425.5C 2994.93,492.512 2994.43,559.512 2993,626.5C 2984.1,700.071 2942.93,741.904 2869.5,752C 2831.11,757.04 2794.44,751.373 2759.5,735C 2727.27,716.409 2706.77,688.909 2698,652.5C 2695.21,640.317 2693.55,627.983 2693,615.5C 2692.5,552.168 2692.33,488.834 2692.5,425.5 Z"/></g>
<g><path fill="#e3124a" d="M 3018.5,425.5 C 3114.5,425.5 3210.5,425.5 3306.5,425.5C 3306.5,449.833 3306.5,474.167 3306.5,498.5C 3273.83,498.5 3241.17,498.5 3208.5,498.5C 3208.5,581.5 3208.5,664.5 3208.5,747.5C 3178.17,747.5 3147.83,747.5 3117.5,747.5C 3117.5,664.5 3117.5,581.5 3117.5,498.5C 3084.5,498.5 3051.5,498.5 3018.5,498.5C 3018.5,474.167 3018.5,449.833 3018.5,425.5 Z"/></g>
<g><path fill="#e3124a" d="M 3331.5,425.5 C 3362.17,425.5 3392.83,425.5 3423.5,425.5C 3423.33,489.501 3423.5,553.501 3424,617.5C 3429.32,664.14 3455.15,683.307 3501.5,675C 3523.56,667.764 3536.39,652.597 3540,629.5C 3540.93,624.201 3541.6,618.867 3542,613.5C 3542.5,550.834 3542.67,488.168 3542.5,425.5C 3572.83,425.5 3603.17,425.5 3633.5,425.5C 3633.93,492.512 3633.43,559.512 3632,626.5C 3623.1,700.071 3581.93,741.904 3508.5,752C 3470.11,757.04 3433.44,751.373 3398.5,735C 3366.27,716.409 3345.77,688.909 3337,652.5C 3334.21,640.317 3332.55,627.983 3332,615.5C 3331.5,552.168 3331.33,488.834 3331.5,425.5 Z"/></g>
<g><path fill="#e3124a" d="M 3693.5,425.5 C 3745.17,425.333 3796.83,425.5 3848.5,426C 3875.99,426.372 3901.99,432.705 3926.5,445C 3963.93,467.333 3982.59,500.5 3982.5,544.5C 3982.71,591.437 3962.05,625.437 3920.5,646.5C 3943.95,679.752 3966.61,713.418 3988.5,747.5C 3955.83,747.833 3923.16,747.5 3890.5,746.5C 3871.36,718.196 3852.03,690.029 3832.5,662C 3816.5,661.5 3800.5,661.333 3784.5,661.5C 3784.5,690.167 3784.5,718.833 3784.5,747.5C 3754.17,747.5 3723.83,747.5 3693.5,747.5C 3693.5,640.167 3693.5,532.833 3693.5,425.5 Z M 3784.5,498.5 C 3805.5,498.333 3826.5,498.5 3847.5,499C 3880.63,504.744 3894.46,524.244 3889,557.5C 3882.71,577.105 3869.21,587.939 3848.5,590C 3827.17,590.5 3805.84,590.667 3784.5,590.5C 3784.5,559.833 3784.5,529.167 3784.5,498.5 Z"/></g>
<g><path fill="#e3124a" d="M 4032.5,425.5 C 4116.17,425.5 4199.83,425.5 4283.5,425.5C 4283.5,449.5 4283.5,473.5 4283.5,497.5C 4229.83,497.5 4176.17,497.5 4122.5,497.5C 4122.5,514.833 4122.5,532.167 4122.5,549.5C 4169.83,549.5 4217.17,549.5 4264.5,549.5C 4264.5,572.5 4264.5,595.5 4264.5,618.5C 4217.17,618.5 4169.83,618.5 4122.5,618.5C 4122.5,637.5 4122.5,656.5 4122.5,675.5C 4178.17,675.5 4233.83,675.5 4289.5,675.5C 4289.5,699.5 4289.5,723.5 4289.5,747.5C 4203.83,747.5 4118.17,747.5 4032.5,747.5C 4032.5,640.167 4032.5,532.833 4032.5,425.5 Z"/></g>
<g><path fill="#000000" d="M 163.5,713.5 C 165.655,713.372 167.655,713.872 169.5,715C 430.33,865.581 690.997,1016.41 951.5,1167.5C 952.663,1242.46 952.83,1317.46 952,1392.5C 951.107,1393.08 950.107,1393.41 949,1393.5C 755.316,1282.07 561.816,1170.24 368.5,1058C 365.794,1056.09 362.794,1055.26 359.5,1055.5C 359.333,1092.17 359.5,1128.83 360,1165.5C 360.833,1166.33 361.667,1167.17 362.5,1168C 559.161,1281.33 755.494,1395.16 951.5,1509.5C 952.663,1584.46 952.83,1659.46 952,1734.5C 950.274,1735.58 948.441,1735.74 946.5,1735C 751.896,1621.45 557.063,1508.28 362,1395.5C 361.228,1395.64 360.561,1395.98 360,1396.5C 359.667,1508.17 359.333,1619.83 359,1731.5C 355.975,1732.71 353.141,1732.21 350.5,1730C 287.721,1693.53 225.221,1656.7 163,1619.5C 162.168,1317.43 162.334,1015.43 163.5,713.5 Z"/></g>
<g><path fill="#000000" d="M 1804.5,713.5 C 1806.14,713.286 1807.64,713.62 1809,714.5C 1810,940.913 1809.66,1167.25 1808,1393.5C 1613.08,1507.38 1417.91,1620.88 1222.5,1734C 1221.33,1735.17 1220.17,1736.33 1219,1737.5C 1218.99,1813.25 1218.33,1888.91 1217,1964.5C 1153.24,2002.63 1089.08,2040.13 1024.5,2077C 1023.17,2077.67 1021.83,2077.67 1020.5,2077C 1019.33,1774.24 1019.17,1471.4 1020,1168.5C 1023.55,1165.28 1027.39,1162.45 1031.5,1160C 1289.56,1011.65 1547.22,862.812 1804.5,713.5 Z"/></g>
<g><path fill="#e3124a" d="M 2883.5,968.5 C 2932.07,964.804 2976.07,976.971 3015.5,1005C 3068.41,1049.72 3087.91,1106.22 3074,1174.5C 3057.49,1236.68 3018.32,1276.84 2956.5,1295C 2899.34,1310.11 2845.34,1302.77 2794.5,1273C 2742.6,1236.02 2718.43,1185.52 2722,1121.5C 2726.62,1071.74 2748.79,1031.91 2788.5,1002C 2817.24,982.365 2848.91,971.198 2883.5,968.5 Z M 2890.5,1044.5 C 2932.85,1042.33 2962.51,1060.49 2979.5,1099C 2990.14,1131.01 2986.97,1161.51 2970,1190.5C 2946.59,1220.42 2916.09,1231.59 2878.5,1224C 2842.1,1213.26 2820.93,1189.09 2815,1151.5C 2809.82,1116.03 2820.32,1086.2 2846.5,1062C 2859.72,1052.32 2874.39,1046.49 2890.5,1044.5 Z"/></g>
<g><path fill="#e3124a" d="M 2401.5,974.5 C 2453.17,974.333 2504.83,974.5 2556.5,975C 2583.99,975.372 2609.99,981.705 2634.5,994C 2668,1013.46 2686.5,1042.63 2690,1081.5C 2693.14,1148.38 2662.31,1190.22 2597.5,1207C 2585.31,1209.73 2572.98,1211.4 2560.5,1212C 2537.84,1212.5 2515.17,1212.67 2492.5,1212.5C 2492.5,1240.5 2492.5,1268.5 2492.5,1296.5C 2462.17,1296.5 2431.83,1296.5 2401.5,1296.5C 2401.5,1189.17 2401.5,1081.83 2401.5,974.5 Z M 2492.5,1047.5 C 2513.5,1047.33 2534.5,1047.5 2555.5,1048C 2588.63,1053.74 2602.46,1073.24 2597,1106.5C 2593.09,1120.08 2584.59,1129.58 2571.5,1135C 2565.3,1136.97 2558.97,1138.31 2552.5,1139C 2532.5,1139.5 2512.5,1139.67 2492.5,1139.5C 2492.5,1108.83 2492.5,1078.17 2492.5,1047.5 Z"/></g>
<g><path fill="#e3124a" d="M 3089.5,974.5 C 3120.84,974.167 3152.17,974.5 3183.5,975.5C 3204.97,1042.4 3226.13,1109.4 3247,1176.5C 3269.99,1109.71 3292.49,1042.71 3314.5,975.5C 3342.49,974.333 3370.49,974.167 3398.5,975C 3420.19,1043.08 3441.69,1111.24 3463,1179.5C 3485.17,1111.49 3507.33,1043.49 3529.5,975.5C 3558.49,974.5 3587.49,974.167 3616.5,974.5C 3582.79,1081.34 3548.46,1188 3513.5,1294.5C 3480.51,1295.5 3447.51,1295.83 3414.5,1295.5C 3395.04,1230.96 3374.88,1166.63 3354,1102.5C 3333.27,1166.87 3312.43,1231.2 3291.5,1295.5C 3258.84,1296.67 3226.17,1296.83 3193.5,1296C 3158.13,1189.06 3123.46,1081.89 3089.5,974.5 Z"/></g>
<g><path fill="#e3124a" d="M 3648.5,974.5 C 3732.17,974.5 3815.83,974.5 3899.5,974.5C 3899.5,998.5 3899.5,1022.5 3899.5,1046.5C 3845.83,1046.5 3792.17,1046.5 3738.5,1046.5C 3738.5,1063.83 3738.5,1081.17 3738.5,1098.5C 3785.83,1098.5 3833.17,1098.5 3880.5,1098.5C 3880.5,1121.5 3880.5,1144.5 3880.5,1167.5C 3833.17,1167.5 3785.83,1167.5 3738.5,1167.5C 3738.5,1186.5 3738.5,1205.5 3738.5,1224.5C 3794.17,1224.5 3849.83,1224.5 3905.5,1224.5C 3905.5,1248.17 3905.5,1271.83 3905.5,1295.5C 3819.83,1295.5 3734.17,1295.5 3648.5,1295.5C 3648.5,1188.5 3648.5,1081.5 3648.5,974.5 Z"/></g>
<g><path fill="#e3124a" d="M 3955.5,974.5 C 4007.17,974.333 4058.83,974.5 4110.5,975C 4137.99,975.372 4163.99,981.705 4188.5,994C 4225.93,1016.33 4244.59,1049.5 4244.5,1093.5C 4244.71,1140.44 4224.05,1174.44 4182.5,1195.5C 4205.17,1228.5 4227.83,1261.5 4250.5,1294.5C 4217.84,1295.67 4185.17,1295.83 4152.5,1295C 4133.17,1267 4113.83,1239 4094.5,1211C 4078.5,1210.5 4062.5,1210.33 4046.5,1210.5C 4046.5,1238.83 4046.5,1267.17 4046.5,1295.5C 4016.17,1295.5 3985.83,1295.5 3955.5,1295.5C 3955.5,1188.5 3955.5,1081.5 3955.5,974.5 Z M 4046.5,1047.5 C 4067.5,1047.33 4088.5,1047.5 4109.5,1048C 4142.63,1053.74 4156.46,1073.24 4151,1106.5C 4144.71,1126.11 4131.21,1136.94 4110.5,1139C 4089.17,1139.5 4067.84,1139.67 4046.5,1139.5C 4046.5,1108.83 4046.5,1078.17 4046.5,1047.5 Z"/></g>
<g><path fill="#e3124a" d="M 4294.5,974.5 C 4378.17,974.5 4461.83,974.5 4545.5,974.5C 4545.5,998.5 4545.5,1022.5 4545.5,1046.5C 4491.83,1046.5 4438.17,1046.5 4384.5,1046.5C 4384.5,1063.83 4384.5,1081.17 4384.5,1098.5C 4431.83,1098.5 4479.17,1098.5 4526.5,1098.5C 4526.5,1121.5 4526.5,1144.5 4526.5,1167.5C 4479.17,1167.5 4431.83,1167.5 4384.5,1167.5C 4384.5,1186.5 4384.5,1205.5 4384.5,1224.5C 4440.17,1224.5 4495.83,1224.5 4551.5,1224.5C 4551.5,1248.17 4551.5,1271.83 4551.5,1295.5C 4465.83,1295.5 4380.17,1295.5 4294.5,1295.5C 4294.5,1188.5 4294.5,1081.5 4294.5,974.5 Z"/></g>
<g><path fill="#e3124a" d="M 4601.5,974.5 C 4660.51,974.066 4719.51,974.566 4778.5,976C 4824.9,979.622 4864.07,998.122 4896,1031.5C 4920.84,1061.34 4933.01,1095.84 4932.5,1135C 4929.66,1215.36 4889.66,1266.69 4812.5,1289C 4800.65,1291.86 4788.65,1293.86 4776.5,1295C 4718.17,1295.5 4659.83,1295.67 4601.5,1295.5C 4601.5,1188.5 4601.5,1081.5 4601.5,974.5 Z M 4692.5,1048.5 C 4716.17,1048.33 4739.84,1048.5 4763.5,1049C 4801.9,1053.75 4826.4,1074.58 4837,1111.5C 4843.55,1140.46 4838.55,1167.13 4822,1191.5C 4806.24,1209.47 4786.4,1219.63 4762.5,1222C 4739.17,1222.5 4715.84,1222.67 4692.5,1222.5C 4692.5,1164.5 4692.5,1106.5 4692.5,1048.5 Z"/></g>
<g><path fill="#e3124a" d="M 1607.5,1054.5 C 1609.47,1054.26 1611.3,1054.59 1613,1055.5C 1613.83,1130.54 1613.66,1205.54 1612.5,1280.5C 1482.66,1356.16 1352.66,1431.66 1222.5,1507C 1220.63,1507.71 1219.13,1507.21 1218,1505.5C 1217.33,1430.17 1217.33,1354.83 1218,1279.5C 1348.14,1204.85 1477.97,1129.85 1607.5,1054.5 Z"/></g>
<g><path fill="#e3124a" d="M 2508.5,1516.5 C 2547.44,1514.32 2585.11,1520.16 2621.5,1534C 2628.86,1537.34 2635.86,1541.17 2642.5,1545.5C 2633.5,1568.15 2624,1590.49 2614,1612.5C 2581.31,1593.54 2546.15,1585.7 2508.5,1589C 2496.33,1590.34 2486.16,1595.5 2478,1604.5C 2472.55,1614.53 2474.05,1623.36 2482.5,1631C 2486.01,1633.25 2489.67,1635.25 2493.5,1637C 2522.03,1644.84 2550.7,1652.17 2579.5,1659C 2603.17,1665.08 2623.34,1676.91 2640,1694.5C 2649.24,1706.21 2654.57,1719.54 2656,1734.5C 2658.69,1782.46 2638.19,1816.29 2594.5,1836C 2563.6,1847.86 2531.6,1852.53 2498.5,1850C 2457.79,1848.24 2419.46,1837.91 2383.5,1819C 2381.41,1817.96 2379.75,1816.46 2378.5,1814.5C 2387.61,1794.62 2396.44,1774.62 2405,1754.5C 2406.02,1751.79 2407.52,1749.46 2409.5,1747.5C 2450.68,1773.46 2495.35,1782.96 2543.5,1776C 2553.34,1773.81 2560.5,1768.31 2565,1759.5C 2567.46,1749.86 2564.62,1742.36 2556.5,1737C 2552.5,1735 2548.5,1733 2544.5,1731C 2515.25,1723.02 2485.92,1715.35 2456.5,1708C 2393.78,1687.4 2372.28,1645.57 2392,1582.5C 2404.74,1557.44 2424.24,1539.6 2450.5,1529C 2469.38,1522.06 2488.71,1517.89 2508.5,1516.5 Z"/></g>
<g><path fill="#e3124a" d="M 2842.5,1516.5 C 2891.07,1512.8 2935.07,1524.97 2974.5,1553C 3027.41,1597.72 3046.91,1654.22 3033,1722.5C 3016.49,1784.68 2977.32,1824.84 2915.5,1843C 2858.34,1858.11 2804.34,1850.77 2753.5,1821C 2701.6,1784.02 2677.43,1733.52 2681,1669.5C 2685.62,1619.74 2707.79,1579.91 2747.5,1550C 2776.24,1530.36 2807.91,1519.2 2842.5,1516.5 Z M 2849.5,1592.5 C 2891.85,1590.33 2921.51,1608.49 2938.5,1647C 2949.14,1679.01 2945.97,1709.51 2929,1738.5C 2905.59,1768.42 2875.09,1779.59 2837.5,1772C 2801.1,1761.26 2779.93,1737.09 2774,1699.5C 2768.82,1664.03 2779.32,1634.2 2805.5,1610C 2818.72,1600.32 2833.39,1594.49 2849.5,1592.5 Z"/></g>
<g><path fill="#e3124a" d="M 4304.5,1516.5 C 4353.07,1512.8 4397.07,1524.97 4436.5,1553C 4489.41,1597.72 4508.91,1654.22 4495,1722.5C 4478.49,1784.68 4439.32,1824.84 4377.5,1843C 4320.34,1858.11 4266.34,1850.77 4215.5,1821C 4163.6,1784.02 4139.43,1733.52 4143,1669.5C 4147.62,1619.74 4169.79,1579.91 4209.5,1550C 4238.24,1530.36 4269.91,1519.2 4304.5,1516.5 Z M 4311.5,1592.5 C 4353.85,1590.33 4383.51,1608.49 4400.5,1647C 4411.14,1679.01 4407.97,1709.51 4391,1738.5C 4367.59,1768.42 4337.09,1779.59 4299.5,1772C 4263.1,1761.26 4241.93,1737.09 4236,1699.5C 4230.82,1664.03 4241.32,1634.2 4267.5,1610C 4280.72,1600.32 4295.39,1594.49 4311.5,1592.5 Z"/></g>
<g><path fill="#e3124a" d="M 5169.5,1734.5 C 5169.5,1742.17 5169.5,1749.83 5169.5,1757.5C 5163.1,1794.75 5142.43,1820.91 5107.5,1836C 5081.69,1846.31 5054.86,1851.14 5027,1850.5C 4983.71,1850.72 4942.54,1841.55 4903.5,1823C 4898.94,1820.89 4894.94,1818.06 4891.5,1814.5C 4900.61,1794.62 4909.44,1774.62 4918,1754.5C 4919.02,1751.79 4920.52,1749.46 4922.5,1747.5C 4963.68,1773.46 5008.35,1782.96 5056.5,1776C 5066.34,1773.81 5073.5,1768.31 5078,1759.5C 5080.46,1749.86 5077.62,1742.36 5069.5,1737C 5065.5,1735 5061.5,1733 5057.5,1731C 5028.25,1723.02 4998.92,1715.35 4969.5,1708C 4910.56,1689.74 4888.06,1650.57 4902,1590.5C 4908.94,1571.56 4920.44,1556.06 4936.5,1544C 4962.21,1526.99 4990.54,1517.99 5021.5,1517C 5060.45,1514.32 5098.11,1519.99 5134.5,1534C 5141.41,1537.37 5148.24,1540.87 5155,1544.5C 5148.62,1562.61 5141.62,1580.61 5134,1598.5C 5132.16,1603.5 5129.83,1608.17 5127,1612.5C 5092.69,1592.44 5055.86,1584.94 5016.5,1590C 5006.27,1591.86 4997.77,1596.7 4991,1604.5C 4985.55,1614.53 4987.05,1623.36 4995.5,1631C 4999.01,1633.25 5002.67,1635.25 5006.5,1637C 5035.03,1644.84 5063.7,1652.17 5092.5,1659C 5116.17,1665.08 5136.34,1676.91 5153,1694.5C 5162.13,1706.41 5167.63,1719.74 5169.5,1734.5 Z"/></g>
<g><path fill="#e3124a" d="M 3084.5,1522.5 C 3114.83,1522.5 3145.17,1522.5 3175.5,1522.5C 3175.5,1605.5 3175.5,1688.5 3175.5,1771.5C 3226.5,1771.5 3277.5,1771.5 3328.5,1771.5C 3328.5,1795.83 3328.5,1820.17 3328.5,1844.5C 3247.17,1844.5 3165.83,1844.5 3084.5,1844.5C 3084.5,1737.17 3084.5,1629.83 3084.5,1522.5 Z"/></g>
<g><path fill="#e3124a" d="M 3356.5,1522.5 C 3387.17,1522.5 3417.83,1522.5 3448.5,1522.5C 3448.33,1586.5 3448.5,1650.5 3449,1714.5C 3454.32,1761.14 3480.15,1780.31 3526.5,1772C 3548.56,1764.76 3561.39,1749.6 3565,1726.5C 3565.93,1721.2 3566.6,1715.87 3567,1710.5C 3567.5,1647.83 3567.67,1585.17 3567.5,1522.5C 3597.83,1522.5 3628.17,1522.5 3658.5,1522.5C 3658.93,1589.51 3658.43,1656.51 3657,1723.5C 3648.1,1797.07 3606.93,1838.9 3533.5,1849C 3495.11,1854.04 3458.44,1848.37 3423.5,1832C 3391.27,1813.41 3370.77,1785.91 3362,1749.5C 3359.21,1737.32 3357.55,1724.98 3357,1712.5C 3356.5,1649.17 3356.33,1585.83 3356.5,1522.5 Z"/></g>
<g><path fill="#e3124a" d="M 3683.5,1522.5 C 3779.5,1522.5 3875.5,1522.5 3971.5,1522.5C 3971.5,1546.83 3971.5,1571.17 3971.5,1595.5C 3938.83,1595.5 3906.17,1595.5 3873.5,1595.5C 3873.5,1678.5 3873.5,1761.5 3873.5,1844.5C 3843.17,1844.5 3812.83,1844.5 3782.5,1844.5C 3782.5,1761.5 3782.5,1678.5 3782.5,1595.5C 3749.5,1595.5 3716.5,1595.5 3683.5,1595.5C 3683.5,1571.17 3683.5,1546.83 3683.5,1522.5 Z"/></g>
<g><path fill="#e3124a" d="M 4004.5,1522.5 C 4034.83,1522.5 4065.17,1522.5 4095.5,1522.5C 4095.5,1629.83 4095.5,1737.17 4095.5,1844.5C 4065.17,1844.5 4034.83,1844.5 4004.5,1844.5C 4004.5,1737.17 4004.5,1629.83 4004.5,1522.5 Z"/></g>
<g><path fill="#e3124a" d="M 4545.5,1522.5 C 4570.84,1522.17 4596.18,1522.5 4621.5,1523.5C 4667.86,1579.35 4714.02,1635.35 4760,1691.5C 4760.5,1635.17 4760.67,1578.83 4760.5,1522.5C 4790.5,1522.5 4820.5,1522.5 4850.5,1522.5C 4850.5,1629.83 4850.5,1737.17 4850.5,1844.5C 4825.16,1844.83 4799.82,1844.5 4774.5,1843.5C 4727.81,1787.31 4681.31,1730.98 4635,1674.5C 4634.5,1731.17 4634.33,1787.83 4634.5,1844.5C 4604.83,1844.5 4575.17,1844.5 4545.5,1844.5C 4545.5,1737.17 4545.5,1629.83 4545.5,1522.5 Z"/></g>
</svg>
